<?xml version="1.0" encoding="UTF-8"?>
<svg xmlns="http://www.w3.org/2000/svg" xmlns:xlink="http://www.w3.org/1999/xlink" width="86px" height="28px" viewBox="0 0 85 28" version="1.1">
<g id="surface1">
<path style=" stroke:none;fill-rule:nonzero;fill:rgb(0%,0%,0%);fill-opacity:1;" d="M 3.945312 2.621094 C 3.90625 2.769531 3.820312 3.480469 3.734375 4.207031 C 3.667969 4.917969 2.945312 8.246094 2.132812 11.617188 C 1.300781 14.964844 0.640625 18.015625 0.640625 18.402344 C 0.640625 19.195312 1.558594 20.421875 1.878906 20.078125 C 2.261719 19.667969 4.203125 12.777344 4.949219 9.234375 L 5.25 7.835938 L 5.847656 9.664062 C 7.148438 13.550781 7.914062 14.816406 8.980469 14.816406 C 9.835938 14.816406 10.667969 14 13.675781 10.285156 C 15.105469 8.523438 16.300781 7.105469 16.34375 7.128906 C 16.363281 7.171875 16.085938 8.308594 15.679688 9.664062 C 14.722656 12.992188 13.867188 16.921875 13.867188 17.992188 C 13.867188 18.464844 13.953125 19.109375 14.082031 19.433594 C 14.273438 19.96875 14.828125 20.355469 15.0625 20.121094 C 15.125 20.054688 15.765625 17.800781 16.449219 15.09375 C 17.132812 12.410156 17.984375 9.191406 18.304688 7.945312 C 19.308594 4.273438 19.328125 3.949219 18.582031 3.199219 C 18.242188 2.855469 17.859375 2.578125 17.75 2.578125 C 17.261719 2.578125 16.195312 3.757812 12.992188 7.816406 C 11.117188 10.179688 9.496094 12.152344 9.410156 12.195312 C 9.066406 12.324219 6.402344 5.476562 6.402344 4.488281 C 6.402344 3.949219 4.90625 2.363281 4.394531 2.363281 C 4.203125 2.363281 4.011719 2.492188 3.945312 2.621094 Z M 3.945312 2.621094 "/>
<path style=" stroke:none;fill-rule:nonzero;fill:rgb(0%,0%,0%);fill-opacity:1;" d="M 73.394531 2.855469 C 72.199219 3.179688 72.070312 3.648438 72.96875 4.53125 C 73.542969 5.132812 73.714844 5.195312 74.417969 5.066406 C 77.382812 4.53125 80.457031 4.765625 81.203125 5.605469 C 81.566406 6.011719 81.542969 6.054688 80.945312 6.9375 C 80.582031 7.429688 79.261719 8.738281 77.980469 9.855469 C 70.40625 16.339844 69.660156 17.480469 71.644531 19.476562 L 72.390625 20.25 L 74.867188 20.121094 C 77.640625 19.96875 79.558594 19.605469 81.414062 18.851562 C 83.273438 18.121094 83.273438 17.050781 81.394531 17.285156 C 80.925781 17.328125 79.347656 17.542969 77.875 17.714844 C 74.609375 18.144531 73.328125 18.101562 73.222656 17.542969 C 73.117188 17.007812 73.394531 16.707031 77.46875 13.183594 C 82.078125 9.191406 83.421875 7.578125 83.421875 6.035156 C 83.421875 5.28125 82.441406 4.035156 81.457031 3.519531 C 79.859375 2.683594 75.421875 2.339844 73.394531 2.855469 Z M 73.394531 2.855469 "/>
<path style=" stroke:none;fill-rule:nonzero;fill:rgb(0%,0%,0%);fill-opacity:1;" d="M 34.15625 7.792969 C 34.03125 7.921875 33.921875 8.417969 33.921875 8.910156 C 33.921875 10.734375 33.453125 13.527344 32.707031 16.191406 C 32.003906 18.703125 31.960938 19.003906 32.238281 19.496094 C 32.726562 20.355469 33.175781 20.550781 33.6875 20.097656 C 33.921875 19.882812 35.097656 18.144531 36.292969 16.234375 C 39.898438 10.519531 40.601562 9.707031 41.433594 10.457031 C 42.050781 11.015625 41.859375 12.753906 40.773438 16.125 C 39.789062 19.152344 39.664062 20.398438 40.28125 20.398438 C 41.050781 20.398438 42.03125 18.679688 42.96875 15.71875 C 44.226562 11.660156 44.164062 9.855469 42.671875 8.503906 C 41.730469 7.644531 41.027344 7.535156 40.21875 8.074219 C 39.511719 8.523438 37.722656 10.972656 36.078125 13.636719 C 35.375 14.792969 34.777344 15.695312 34.777344 15.589844 C 34.777344 15.503906 34.96875 14.6875 35.183594 13.785156 C 35.949219 10.757812 36.121094 9.449219 35.820312 8.761719 C 35.503906 7.988281 34.542969 7.40625 34.15625 7.792969 Z M 34.15625 7.792969 "/>
<path style=" stroke:none;fill-rule:nonzero;fill:rgb(0%,0%,0%);fill-opacity:1;" d="M 25.238281 8.179688 C 22.699219 9.449219 19.628906 14.40625 19.628906 17.222656 C 19.628906 18.25 19.691406 18.378906 20.589844 19.238281 C 22.273438 20.871094 23.960938 20.742188 25.945312 18.808594 C 26.582031 18.1875 27.136719 17.734375 27.203125 17.777344 C 27.265625 17.84375 27.308594 18.121094 27.308594 18.402344 C 27.308594 19.175781 27.886719 20.398438 28.246094 20.398438 C 28.417969 20.398438 28.609375 20.140625 28.675781 19.796875 C 29.078125 17.777344 29.65625 13.914062 29.636719 13.183594 C 29.636719 12.734375 29.699219 11.9375 29.785156 11.421875 C 29.953125 10.242188 29.636719 9.449219 28.566406 8.480469 C 27.566406 7.578125 26.605469 7.492188 25.238281 8.179688 Z M 27.929688 10.542969 C 28.246094 11.445312 28.226562 11.875 27.84375 12.605469 C 27.671875 12.925781 27.308594 13.765625 27.011719 14.429688 C 26.457031 15.738281 25.027344 17.457031 24.085938 17.949219 C 23.296875 18.359375 22.296875 18.335938 21.867188 17.886719 C 20.566406 16.597656 24.878906 9.878906 26.988281 9.878906 C 27.585938 9.878906 27.734375 9.984375 27.929688 10.542969 Z M 27.929688 10.542969 "/>
<path style=" stroke:none;fill-rule:nonzero;fill:rgb(0%,0%,0%);fill-opacity:1;" d="M 50.96875 8.160156 C 49.96875 8.695312 48.003906 10.820312 47.171875 12.324219 C 45.167969 15.847656 45.167969 18.722656 47.195312 19.96875 C 48.175781 20.570312 49.199219 20.507812 50.542969 19.753906 C 51.183594 19.390625 51.738281 19.132812 51.757812 19.175781 C 51.910156 19.324219 50.777344 23.234375 50.351562 24.050781 C 49.390625 25.960938 48.175781 25.960938 46.363281 24.070312 C 45.253906 22.910156 45.1875 22.890625 44.910156 23.277344 C 43.738281 24.84375 45.914062 27.054688 48.601562 27.054688 C 51.054688 27.054688 51.84375 25.960938 53.445312 20.3125 C 53.976562 18.445312 54.726562 16.296875 55.085938 15.566406 C 55.726562 14.234375 55.75 14.214844 55.535156 12.21875 C 55.429688 11.101562 55.152344 9.8125 54.9375 9.363281 C 54.214844 7.835938 52.550781 7.320312 50.96875 8.160156 Z M 53.53125 10.5 C 53.679688 10.820312 53.871094 11.574219 53.957031 12.152344 C 54.105469 13.078125 54.042969 13.355469 53.488281 14.449219 C 52.144531 17.070312 48.773438 19.132812 47.792969 17.929688 C 47.066406 17.050781 48.730469 13.054688 50.671875 11.058594 C 51.609375 10.070312 51.929688 9.878906 52.550781 9.878906 C 53.167969 9.878906 53.339844 9.984375 53.53125 10.5 Z M 53.53125 10.5 "/>
<path style=" stroke:none;fill-rule:nonzero;fill:rgb(0%,0%,0%);fill-opacity:1;" d="M 63.003906 8.179688 C 60.464844 9.449219 57.390625 14.40625 57.390625 17.222656 C 57.390625 18.25 57.457031 18.378906 58.351562 19.238281 C 60.039062 20.871094 61.722656 20.742188 63.707031 18.808594 C 64.347656 18.1875 64.902344 17.734375 64.964844 17.777344 C 65.03125 17.84375 65.074219 18.121094 65.074219 18.402344 C 65.074219 19.175781 65.648438 20.398438 66.011719 20.398438 C 66.183594 20.398438 66.375 20.140625 66.4375 19.796875 C 66.84375 17.777344 67.417969 13.914062 67.398438 13.183594 C 67.398438 12.734375 67.460938 11.9375 67.546875 11.421875 C 67.71875 10.242188 67.398438 9.449219 66.332031 8.480469 C 65.328125 7.578125 64.367188 7.492188 63.003906 8.179688 Z M 65.691406 10.542969 C 66.011719 11.445312 65.988281 11.875 65.605469 12.605469 C 65.433594 12.925781 65.074219 13.765625 64.773438 14.429688 C 64.21875 15.738281 62.789062 17.457031 61.851562 17.949219 C 61.0625 18.359375 60.058594 18.335938 59.632812 17.886719 C 58.332031 16.597656 62.640625 9.878906 64.753906 9.878906 C 65.351562 9.878906 65.5 9.984375 65.691406 10.542969 Z M 65.691406 10.542969 "/>
</g>
</svg>
